<?xml version="1.0" encoding="UTF-8" standalone="no"?>
<!--
  Dream Theater "Majesty" symbol (Φ Μ Λ monogram).
  Path extracted from the public-domain Wikipedia file
  https://en.wikipedia.org/wiki/File:Majesty_(old_name_of_Dream_Theater)_(logo).svg
  Background removed, wordmark stripped, viewBox tightened to the glyph,
  fill set to currentColor so the color can be controlled via CSS `color:`
  or an inline `fill="..."` attribute on the <svg> element.
-->
<svg xmlns="http://www.w3.org/2000/svg"
     viewBox="164 109 281 249"
     fill="currentColor"
     role="img"
     aria-label="Dream Theater Majesty symbol">
  <path d="M 249.13339,110.98517 C 268.86273,117.51834 281.92859,125.35786 288.331,134.50373 C 269.64668,134.63461 255.37224,136.33317 245.50761,139.59942 C 235.6428,142.8661 230.97175,144.30334 231.49447,143.91116 C 234.76085,140.12227 242.27372,137.11712 254.03309,134.89571 L 183.86938,134.89571 C 186.48252,136.98647 190.53293,138.42371 196.02064,139.20744 C 201.50825,139.99161 205.78732,141.7555 208.85786,144.49912 C 211.92827,147.24316 212.48357,149.26837 210.52375,150.57475 C 180.34157,171.48032 166.23045,199.93122 168.19034,235.92753 C 170.1502,271.92408 184.26132,299.91767 210.52375,319.90839 C 204.90537,328.53189 194.97533,335.06482 180.73358,339.5072 L 269.32016,339.5072 C 254.03299,337.15536 242.53504,333.49692 234.82627,328.53187 C 253.90233,333.49692 271.73722,336.11009 288.331,336.37139 C 281.92859,345.64816 268.86273,352.18109 249.13339,355.97019 L 356.9268,355.97019 C 337.32781,352.05043 324.26196,345.5175 317.7292,336.37139 C 337.85044,336.63272 355.1627,333.75824 369.66602,327.74791 C 363.52485,333.75824 352.28821,337.67799 335.95608,339.5072 L 338.30794,340.29115 L 424.54267,339.5072 C 409.64732,334.93416 399.97858,328.13992 395.53644,319.12444 C 424.93437,300.57096 440.31941,273.16534 441.69162,236.90747 C 443.06324,200.64984 427.41688,172.91757 394.75249,153.71056 C 393.70697,151.09759 394.16428,148.90906 396.1244,147.14496 C 398.08403,145.38128 400.76253,143.65005 404.15991,141.95128 C 411.47654,139.99161 417.48683,137.63976 422.19081,134.89571 L 352.41908,134.89571 C 363.78617,136.72515 370.54775,138.75036 372.70384,140.97134 C 374.85948,143.19275 375.67609,144.17269 375.15369,143.91116 C 356.20797,138.16239 337.06649,135.02659 317.7292,134.50373 C 324.1313,125.35786 337.19715,117.51834 356.9268,110.98517 L 249.13339,110.98517 L 249.13339,110.98517 z M 268.83019,147.73292 C 281.96125,147.27583 288.46151,147.70047 288.331,149.00685 L 288.331,207.80325 L 272.06399,239.7493 L 236.59016,158.80625 C 244.95222,151.88154 255.69888,148.19044 268.83019,147.73292 L 268.83019,147.73292 z M 337.52399,147.63493 C 350.58965,148.02711 361.10767,151.75088 369.07806,158.80625 L 333.9962,239.55331 L 317.7292,207.80325 L 317.7292,149.00685 C 317.85969,147.70047 324.45794,147.24316 337.52399,147.63493 L 337.52399,147.63493 z M 211.30771,172.13343 C 212.61423,173.70152 213.13686,175.26942 212.87561,176.83714 L 212.87561,297.56576 C 197.45784,280.84152 189.22635,260.16481 188.18112,235.53555 C 187.13581,210.90654 194.84467,189.77252 211.30771,172.13343 L 211.30771,172.13343 z M 226.2028,172.13343 C 229.46918,174.87744 231.82103,178.01325 233.25836,181.54086 C 251.1585,222.17584 262.13382,245.17174 266.18435,250.52864 L 230.12256,311.28492 L 225.41884,306.97318 L 225.41884,190.16433 C 225.02679,183.10893 225.28811,177.09864 226.2028,172.13343 L 226.2028,172.13343 z M 378.28949,172.13343 C 379.59585,173.4402 380.3798,174.74679 380.64135,176.05319 L 381.62129,305.79726 L 376.5256,310.69696 L 340.6598,252.09654 L 378.28949,172.13343 L 378.28949,172.13343 z M 393.18458,172.13343 C 414.22036,197.22006 422.84383,220.86925 419.055,243.08109 C 415.26563,265.29316 406.38085,283.32404 392.40063,297.17378 L 392.40063,184.67666 C 392.13907,179.84247 392.40039,175.6614 393.18458,172.13343 L 393.18458,172.13343 z M 327.5286,247.00085 L 317.7292,276.39905 L 317.7292,227.40205 L 327.5286,247.00085 z M 288.331,276.39905 L 278.5316,247.00085 L 288.331,227.40205 L 288.331,276.39905 z M 288.331,305.79726 L 288.331,325.39606 C 275.265,325.39609 258.93268,322.12962 239.33399,315.59666 C 258.01807,283.06272 268.01345,265.03184 269.32016,261.50397 L 288.331,305.79726 z M 366.7262,315.59666 C 347.1272,322.26028 330.79488,325.52675 317.7292,325.39606 L 317.7292,305.79726 L 335.17213,261.50397 L 366.7262,315.59666 z"/>
</svg>
